<?xml version="1.0" encoding="utf-8"?>
<!-- Generator: Adobe Illustrator 19.2.0, SVG Export Plug-In . SVG Version: 6.00 Build 0)  -->
<svg version="1.1" id="Слой_1" xmlns="http://www.w3.org/2000/svg" xmlns:xlink="http://www.w3.org/1999/xlink" x="0px" y="0px"
	 viewBox="0 0 14 20" enable-background="new 0 0 14 20" xml:space="preserve">
<g>
	<g>
		<path fill="#FFFFFF" d="M14,6.6c0,5.8-7,13.1-7,13.1S0,12.5,0,6.6c0-3.5,3.1-6.4,7-6.4S14,3.1,14,6.6z"/>
	</g>
	<g>
		<path fill="#00CC83" d="M1.9,4.1h2.2c0.7,0,1.1,0.2,1.4,0.7c1,1.5,1.4,2.7,0,4.5C5.1,9.7,4.8,10,4,10H1.9c1.1-2,1.3-2.7,2.9-2.9v0
			C3.2,6.8,2.9,6.1,1.9,4.1"/>
		<path fill="#00D6F6" d="M12.1,4.1H9.9c-0.7,0-1.1,0.2-1.4,0.7c-1,1.5-1.4,2.7,0,4.5C8.9,9.7,9.2,10,10,10h2.2
			c-1.1-2-1.3-2.7-2.9-2.9v0C10.8,6.8,11.1,6.1,12.1,4.1"/>
		<path fill="#00BBFF" d="M7,4.4c0.2,0,0.4,0.2,0.4,0.4C7.4,5,7.2,5.2,7,5.2C6.8,5.2,6.6,5,6.6,4.8C6.6,4.5,6.8,4.4,7,4.4z M7,5.7
			c0.5,0,0.7-0.4,1.1-1.1C8.4,4.1,8.4,3.5,8,2.9L7,1.1L6,2.9C5.6,3.5,5.6,4.1,5.9,4.6C6.3,5.3,6.5,5.7,7,5.7L7,5.7z"/>
		<path fill="#00D9C0" d="M5.8,9.6c-0.3,0.5-0.2,1,0.2,1.6L7,13l1-1.7c0.4-0.6,0.5-1.1,0.2-1.6C8,9.3,7.7,8.8,7.5,8.6
			C7.3,8.4,7.2,8.3,7,8.3c-0.2,0-0.3,0.1-0.5,0.3C6.3,8.8,6,9.2,5.8,9.6"/>
	</g>
</g>
</svg>
