<?xml version="1.0" encoding="utf-8"?>
<!-- Generator: Adobe Illustrator 19.2.0, SVG Export Plug-In . SVG Version: 6.00 Build 0)  -->
<svg version="1.1" id="Слой_1" xmlns="http://www.w3.org/2000/svg" xmlns:xlink="http://www.w3.org/1999/xlink" x="0px" y="0px"
	 viewBox="0 0 30 30" enable-background="new 0 0 30 30" xml:space="preserve">
<circle fill="#317EFC" cx="15" cy="15" r="15"/>
<g>
	<path fill="#FFFFFF" d="M19.5,2.8h-8.9C9,2.8,7.8,4,7.8,5.5v18.9c0,1.5,1.2,2.8,2.8,2.8h8.9c1.5,0,2.8-1.2,2.8-2.8V5.5
		C22.2,4,21,2.8,19.5,2.8z M15,26.1c-0.9,0-1.7-0.7-1.7-1.7c0-0.9,0.7-1.7,1.7-1.7s1.7,0.7,1.7,1.7C16.7,25.4,15.9,26.1,15,26.1z
		 M20,21.7H10V6.1h10V21.7z"/>
</g>
</svg>
